# xmcd
#
# Track frame offsets:
#	150
#	13040
#	26628
#	134036
#	159685
#	175111
#	205970
#	220450
#	264084
#	282627
#	301153
#	315111
#
# Disc length: 4594 seconds
# Revision: 0
# Processed by: cddbd v1.5.2PL0 Copyright (c) Steve Scherf et al.
# Submitted via: dBpowerAMP V12.0
#
DISCID=a911f00c
DTITLE=Andrew Liles - The Flesh Creeping Gonzoid and Other Imaginary Creatures-Volume 3
DYEAR=2011
DGENRE=Industrial
TTITLE0=Keed
TTITLE1=The Big Horizontal
TTITLE2=The Last Few Minutes Of A Lonely Life Or Goodbye Mr. Pips
TTITLE3=The Frailty Of Equilibrium
TTITLE4=Sea Man Or Giordano The Unsuspecting Landlord
TTITLE5=A False Sense Of Celestial Wll Being
TTITLE6=Aural Anagram (Fit For A King Version)
TTITLE7=Erto
TTITLE8=Sulky Sues Plum Pudding
TTITLE9=Industrial Science
TTITLE10=Goose
TTITLE11=The Astronomical Entomologist (Long Version)
EXTD=
EXTT0=
EXTT1=
EXTT2=
EXTT3=
EXTT4=
EXTT5=
EXTT6=
EXTT7=
EXTT8=
EXTT9=
EXTT10=
EXTT11=
PLAYORDER=
